<svg width="1104" height="50" viewBox="0 0 1104 50" fill="none" xmlns="http://www.w3.org/2000/svg">
<g clip-path="url(#clip0_107_666)">
<path d="M206.199 11H192.768C188.387 11 184.836 14.5154 184.836 18.8521V32.1487C184.836 36.4854 188.387 40.0008 192.768 40.0008H206.199C210.58 40.0008 214.131 36.4854 214.131 32.1487V18.8521C214.131 14.5154 210.58 11 206.199 11ZM211.008 36.9323H187.958V14.1136H211.008V36.9323ZM237.068 11H215.705V40H237.068C241.449 40 245 36.4846 245 32.1479V18.8521C245 14.5154 241.449 11 237.068 11ZM241.878 36.9323H218.828V14.1136H241.878V36.9323ZM144.363 11H130.932C126.551 11 123 14.5154 123 18.8521V40.0008H126.122V29.7638H144.363C148.744 29.7638 152.295 26.2484 152.295 21.9117V18.8521C152.295 14.5154 148.744 11 144.363 11ZM149.172 26.6727H126.122V14.137H149.172V26.6727ZM183.213 25.0833V18.8521C183.213 14.5154 179.662 11 175.281 11H161.85C157.469 11 153.918 14.5154 153.918 18.8521V40.0008H157.04V29.7413H180.09V40.0008H183.213V31.2864C183.213 29.5794 181.815 28.213 180.09 28.213V28.1591C181.826 28.1591 183.213 26.8032 183.213 25.0841V25.0833ZM180.09 26.6494H157.04V14.1136H180.09V26.6494Z" fill="white"/>
</g>
<defs>
<clipPath id="clip0_107_666">
<rect width="122" height="29" fill="white" transform="translate(123 11)"/>
</clipPath>
</defs>
</svg>
